<svg xmlns="http://www.w3.org/2000/svg" width="823" height="247" viewBox="0 0 823 247" xmlns:xlink="http://www.w3.org/1999/xlink">
  <defs>
    <rect id="a" width="170" height="101" x="6" y="6"/>
    <mask id="v" width="174" height="105" x="-2" y="-2">
      <rect width="174" height="105" x="4" y="4" fill="white"/>
      <use fill="black" xlink:href="#a"/>
    </mask>
    <rect id="b" width="65" height="3" x="59" y="129" rx="1"/>
    <mask id="w" width="69" height="7" x="-2" y="-2">
      <rect width="69" height="7" x="57" y="127" fill="white"/>
      <use fill="black" xlink:href="#b"/>
    </mask>
    <rect id="c" width="13" height="2" y="38"/>
    <mask id="x" width="13" height="2" x="0" y="0" fill="white">
      <use xlink:href="#c"/>
    </mask>
    <rect id="d" width="13" height="2" x="16" y="38"/>
    <mask id="y" width="13" height="2" x="0" y="0" fill="white">
      <use xlink:href="#d"/>
    </mask>
    <rect id="e" width="162" height="93" x="10" y="10"/>
    <mask id="z" width="166" height="97" x="-2" y="-2">
      <rect width="166" height="97" x="8" y="8" fill="white"/>
      <use fill="black" xlink:href="#e"/>
    </mask>
    <circle id="f" cx="91.5" cy="107.5" r="2.5"/>
    <mask id="A" width="5" height="5" x="0" y="0" fill="white">
      <use xlink:href="#f"/>
    </mask>
    <rect id="g" width="65" height="3" x="59" y="129" rx="1"/>
    <mask id="B" width="69" height="7" x="-2" y="-2">
      <rect width="69" height="7" x="57" y="127" fill="white"/>
      <use fill="black" xlink:href="#g"/>
    </mask>
    <rect id="h" width="36" height="3" x="189" y="129" rx="1"/>
    <mask id="C" width="40" height="7" x="-2" y="-2">
      <rect width="40" height="7" x="187" y="127" fill="white"/>
      <use fill="black" xlink:href="#h"/>
    </mask>
    <rect id="i" width="22" height="33" x="3" y="9"/>
    <mask id="D" width="22" height="33" x="0" y="0" fill="white">
      <use xlink:href="#i"/>
    </mask>
    <circle id="j" cx="14" cy="47" r="3"/>
    <mask id="E" width="6" height="6" x="0" y="0" fill="white">
      <use xlink:href="#j"/>
    </mask>
    <rect id="k" width="7" height="1" x="11" y="4"/>
    <mask id="F" width="7" height="1" x="0" y="0" fill="white">
      <use xlink:href="#k"/>
    </mask>
    <rect id="l" width="99" height="64"/>
    <mask id="G" width="99" height="64" x="0" y="0" fill="white">
      <use xlink:href="#l"/>
    </mask>
    <rect id="m" width="1" height="64" x="23"/>
    <mask id="H" width="1" height="64" x="0" y="0" fill="white">
      <use xlink:href="#m"/>
    </mask>
    <rect id="n" width="16" height="1" x="3" y="5"/>
    <mask id="I" width="16" height="1" x="0" y="0" fill="white">
      <use xlink:href="#n"/>
    </mask>
    <rect id="o" width="16" height="1" x="3" y="9"/>
    <mask id="J" width="16" height="1" x="0" y="0" fill="white">
      <use xlink:href="#o"/>
    </mask>
    <rect id="p" width="16" height="1" x="3" y="13"/>
    <mask id="K" width="16" height="1" x="0" y="0" fill="white">
      <use xlink:href="#p"/>
    </mask>
    <rect id="q" width="12" height="1" x="7" y="17"/>
    <mask id="L" width="12" height="1" x="0" y="0" fill="white">
      <use xlink:href="#q"/>
    </mask>
    <rect id="r" width="12" height="1" x="7" y="21"/>
    <mask id="M" width="12" height="1" x="0" y="0" fill="white">
      <use xlink:href="#r"/>
    </mask>
    <rect id="s" width="12" height="1" x="7" y="25"/>
    <mask id="N" width="12" height="1" x="0" y="0" fill="white">
      <use xlink:href="#s"/>
    </mask>
    <rect id="O" width="146" height="6" y="76" rx="2"/>
    <rect id="t" width="99" height="64" x="24" y="6"/>
    <mask id="Q" width="103" height="68" x="-2" y="-2">
      <rect width="103" height="68" x="22" y="4" fill="white"/>
      <use fill="black" xlink:href="#t"/>
    </mask>
    <rect id="u" width="57" height="1" x="223" y="103"/>
    <mask id="R" width="57" height="1" x="0" y="0" fill="white">
      <use xlink:href="#u"/>
    </mask>
  </defs>
  <g fill="none" fill-rule="evenodd">
    <rect width="822" height="247" x="1" fill="#FFFFFF"/>
    <g transform="translate(1 56)">
      <g opacity=".597" transform="translate(85)">
        <g transform="translate(390)">
          <rect width="21" height="33" x="81" y="97" stroke="#DEDEDE" stroke-width="2"/>
          <rect width="182" height="113" fill="#FFFFFF" stroke="#DEDEDE" stroke-width="2" rx="3"/>
          <use fill="#FFFFFF" xlink:href="#a"/>
          <use stroke="#DEDEDE" stroke-width="4" mask="url(#v)" xlink:href="#a"/>
          <g>
            <use fill="#FFFFFF" xlink:href="#b"/>
            <use stroke="#DEDEDE" stroke-width="4" mask="url(#w)" xlink:href="#b"/>
          </g>
        </g>
        <g stroke="#DEDEDE" stroke-width="2" transform="translate(589 33)">
          <path fill="#FFFFFF" d="M0 2.00713962C0 .898627015.893542647.1374681 1.97442019.303756952L13 2 13 93 0 93 0 2.00713962zM16 2L27.0255798 3.69624305C28.116022 3.86400338 29 4.89530312 29 6.00484068L29 93 16 93 16 2z"/>
          <use mask="url(#x)" xlink:href="#c"/>
          <use mask="url(#y)" xlink:href="#d"/>
        </g>
        <path stroke="#DEDEDE" stroke-width="2" d="M586.416651,126.816689 C586.738826,126.365644 587.441544,126 588.005643,126 L618.994357,126 C619.549758,126 620.254825,126.356755 620.583349,126.816689 L625,133 L582,133 L586.416651,126.816689 Z"/>
        <g transform="translate(158)">
          <polygon fill="#FFFFFF" stroke="#DEDEDE" stroke-width="2" points="77 97 106 97 112 130 71 130"/>
          <rect width="182" height="113" fill="#FFFFFF" stroke="#DEDEDE" stroke-width="2" rx="7"/>
          <use fill="#FFFFFF" xlink:href="#e"/>
          <use stroke="#DEDEDE" stroke-width="4" mask="url(#z)" xlink:href="#e"/>
          <use stroke="#DEDEDE" stroke-width="2" mask="url(#A)" xlink:href="#f"/>
          <use fill="#FFFFFF" xlink:href="#g"/>
          <use stroke="#DEDEDE" stroke-width="4" mask="url(#B)" xlink:href="#g"/>
          <use stroke="#DEDEDE" stroke-width="4" mask="url(#C)" xlink:href="#h"/>
          <g stroke="#DEDEDE" transform="translate(193 76)">
            <rect width="28" height="52" stroke-width="2" rx="5"/>
            <use stroke-width="4" mask="url(#D)" xlink:href="#i"/>
            <use stroke-width="6" mask="url(#E)" xlink:href="#j"/>
            <use stroke-width="2" mask="url(#F)" opacity=".685" xlink:href="#k"/>
          </g>
        </g>
        <g transform="translate(24 27)">
          <use stroke="#DEDEDE" stroke-width="4" mask="url(#G)" xlink:href="#l"/>
          <g transform="translate(2)">
            <rect width="75" height="64" x="22" fill="#3A3E45"/>
            <use stroke="#FFFFFF" stroke-opacity=".309" stroke-width="2" mask="url(#H)" stroke-dasharray="2 3" xlink:href="#m"/>
            <g transform="translate(30 14)">
              <rect width="13" height="1" fill="#35B858"/>
              <rect width="11" height="1" x="2" y="3" fill="#A327ED"/>
              <rect width="4" height="1" x="2" y="6" fill="#1787FD"/>
              <rect width="6" height="1" x="2" y="9" fill="#1787FD"/>
              <rect width="4" height="1" x="9" y="9" fill="#1787FD"/>
              <rect width="6" height="1" x="7" y="6" fill="#1787FD"/>
            </g>
            <g transform="translate(30 31)">
              <rect width="13" height="1" fill="#35B858"/>
              <rect width="11" height="1" x="2" y="3" fill="#A327ED"/>
              <rect width="4" height="1" x="2" y="6" fill="#1787FD"/>
              <rect width="6" height="1" x="2" y="9" fill="#1787FD"/>
              <rect width="4" height="1" x="9" y="9" fill="#1787FD"/>
              <rect width="6" height="1" x="7" y="6" fill="#1787FD"/>
            </g>
            <g transform="translate(30 47)">
              <rect width="13" height="1" fill="#35B858"/>
              <rect width="11" height="1" x="2" y="3" fill="#A327ED"/>
              <rect width="4" height="1" x="2" y="6" fill="#1787FD"/>
              <rect width="6" height="1" x="2" y="9" fill="#1787FD"/>
              <rect width="4" height="1" x="9" y="9" fill="#1787FD"/>
              <rect width="6" height="1" x="7" y="6" fill="#1787FD"/>
            </g>
            <use fill="#D8D8D8" stroke="#979797" stroke-width="2" mask="url(#I)" xlink:href="#n"/>
            <use fill="#D8D8D8" stroke="#979797" stroke-width="2" mask="url(#J)" xlink:href="#o"/>
            <use fill="#D8D8D8" stroke="#979797" stroke-width="2" mask="url(#K)" xlink:href="#p"/>
            <use fill="#D8D8D8" stroke="#979797" stroke-width="2" mask="url(#L)" xlink:href="#q"/>
            <use fill="#D8D8D8" stroke="#979797" stroke-width="2" mask="url(#M)" xlink:href="#r"/>
            <use fill="#D8D8D8" stroke="#979797" stroke-width="2" mask="url(#N)" xlink:href="#s"/>
            <rect width="22" height="5" y="28" fill="#C4CACC"/>
            <rect width="11" height="1" x="30" y="7" fill="#ABB3B3" fill-opacity=".503"/>
            <rect width="4" height="1" x="30" y="10" fill="#ABB3B3" fill-opacity=".503"/>
            <rect width="31" height="1" x="36" y="10" fill="#ABB3B3" fill-opacity=".503"/>
            <rect width="21" height="1" x="43" y="7" fill="#ABB3B3" fill-opacity=".503"/>
            <rect width="16" height="1" x="3" y="30" fill="#979797"/>
          </g>
        </g>
        <g transform="translate(0 21)">
          <rect width="7" height="25" x="70" y="83" stroke="#DEDEDE" stroke-width="2"/>
          <rect width="22" height="6" x="104" y="82" stroke="#DEDEDE" stroke-width="2" rx="1"/>
          <rect width="22" height="6" x="20" y="82" stroke="#DEDEDE" stroke-width="2" rx="1"/>
          <path fill="#FFFFFF" stroke="#DEDEDE" stroke-width="2" d="M18,2.99485885 C18,1.34084398 19.3358366,0 20.9957294,0 L127.004271,0 C128.658766,0 130,1.33647919 130,2.99485885 L130,77 L18,77 L18,2.99485885 Z"/>
          <mask id="P" fill="white">
            <use xlink:href="#O"/>
          </mask>
          <use fill="#FFFFFF" stroke="#DEDEDE" stroke-width="2" xlink:href="#O"/>
          <path stroke="#DEDEDE" stroke-width="2" d="M64,75 L82,75 L82,76.5 C82,77.3284271 81.338023,78 80.4962901,78 L65.5037099,78 C64.6732339,78 64,77.3342028 64,76.5 L64,75 Z" mask="url(#P)"/>
          <use fill="#FFFFFF" xlink:href="#t"/>
          <use stroke="#DEDEDE" stroke-width="4" mask="url(#Q)" xlink:href="#t"/>
          <path fill="#FFFFFF" stroke="#DEDEDE" stroke-width="2" d="M28,109.004882 C28,107.897616 28.900659,107 30.00672,107 L116.99328,107 C118.101561,107 119,107.8939 119,109.004882 L119,112 L28,112 L28,109.004882 Z"/>
        </g>
        <use stroke="#DEDEDE" stroke-width="2" mask="url(#R)" xlink:href="#u"/>
      </g>
      <rect width="800" height="8" y="132" fill="#F4F4F4" stroke="#ECECEC" stroke-width="2" rx="3"/>
    </g>
    <rect width="65" height="21" x="757" y="42" stroke="#ECECEC" stroke-width="2" rx="3"/>
    <rect width="65" height="21" x="724" y="21" stroke="#ECECEC" stroke-width="2" rx="3"/>
    <rect width="65" height="21" x="692" y="42" stroke="#ECECEC" stroke-width="2" rx="3"/>
    <rect width="65" height="21" x="29" y="1" stroke="#ECECEC" stroke-width="2" rx="3"/>
    <rect width="65" height="21" x="62" y="22" stroke="#ECECEC" stroke-width="2" rx="3"/>
    <rect width="65" height="21" x="127" y="22" stroke="#ECECEC" stroke-width="2" rx="3"/>
    <rect width="65" height="21" x="94" y="1" stroke="#ECECEC" stroke-width="2" rx="3"/>
  </g>
</svg>
