<svg xmlns="http://www.w3.org/2000/svg" width="58" height="64" viewBox="0 0 58 64">
  <path fill="#474955" fill-rule="evenodd" d="M13.6645723,51.3697396 C6.97925791,50.6014284 1.38998768,45.314636 0.243433283,38.6989558 C-1.22764244,30.2103073 4.11360183,22.3366873 12.5482364,20.5778781 C12.9971357,20.4841567 13.2117314,20.3459103 13.3009274,19.8275229 C13.861504,16.5699011 15.3419227,13.7721273 17.6788265,11.4324498 C21.2031601,7.90373667 24.7361068,4.38349057 28.2491997,0.843536706 C28.5868595,0.503395154 28.750653,0.516533669 29.0829115,0.851565799 C32.6123545,4.40962162 36.1765417,7.93307935 39.7001454,11.4965366 C45.6824032,17.5463847 45.8396274,26.8960439 39.9648135,33.3109968 C40.7377961,33.3109968 41.393554,33.3074932 42.0493118,33.3117267 C44.6913212,33.3286608 47.2006316,33.8763909 49.558557,35.1080537 C58.3825296,39.7176287 60.7198715,51.4503225 54.2179124,58.9848228 C49.9200122,63.9653419 44.4006681,65.6759765 38.1013341,63.9295759 C31.749592,62.168431 28.0765012,57.7227955 26.8465902,51.2706168 C26.583382,49.8893209 26.6887821,48.472697 26.6759355,46.9410382 C22.9174444,50.4539851 18.6306389,51.9405351 13.6645723,51.3697396 Z M37.5123345,37.9799433 C35.6634535,37.9796513 33.8142805,37.9971693 31.9659834,37.9681186 C31.4646761,37.9602355 31.3027804,38.0811098 31.3141671,38.6062125 C31.349933,40.2597676 31.3075978,41.9147825 31.332123,43.5686296 C31.3652613,45.8046588 31.1932927,48.0457975 31.4310998,50.2765713 C32.1919658,57.4088872 39.9931781,61.921967 46.5675449,59.0444863 C51.4226641,56.9194045 54.087301,51.8802001 53.0537378,46.7776388 C52.0127294,41.6378518 47.5868017,38.0282638 42.2560683,37.982279 C40.674921,37.9687025 39.0936277,37.9802352 37.5123345,37.9799433 Z M15.5849268,46.8533313 C20.616832,46.8743529 25.0921022,43.3733766 26.2532549,38.5325638 C26.3544215,38.1106715 26.3347137,37.9991401 25.854428,37.8924262 C19.1877995,36.4108396 15.0101898,32.3526443 13.389043,25.7057237 C13.2783875,25.2520069 13.1478783,25.198285 12.7102197,25.3139039 C7.42284337,26.711696 4.01281482,31.9119202 4.75557886,37.4825045 C5.45980326,42.7640415 10.1593041,46.8307038 15.5849268,46.8533313 Z M24.5493793,20.2759112 C26.5683311,20.2759112 28.5875749,20.295473 30.6059427,20.2624807 C31.1308994,20.2538677 31.2361535,20.4138656 31.2332338,20.9102095 C31.2114823,24.5343959 31.2215551,28.1587282 31.2218471,31.7830605 C31.2218471,33.3370549 31.2219931,33.3370549 32.7104408,32.7242161 C40.0556006,29.700022 41.9782033,20.5754693 36.4476184,14.8216757 C34.0210807,12.2971831 31.4980479,9.86553592 29.0350143,7.37578735 C28.7316606,7.069222 28.5737064,7.11009738 28.2951699,7.39140758 C25.7960784,9.91385646 23.2750893,12.4146998 20.7771657,14.9384625 C19.4698835,16.2593212 18.5868293,17.8322934 18.085084,19.6273065 C17.9480055,20.1172271 17.9766182,20.3001445 18.5659536,20.2894877 C20.5597963,20.2538677 22.5548068,20.2759112 24.5493793,20.2759112 Z M18.0313037,24.9299527 C18.5207863,28.767421 22.416356,32.5765684 26.4765951,33.2400634 C26.5003904,33.1987501 26.5443314,33.1572908 26.5443314,33.1158315 C26.5498788,30.5133836 26.5453533,27.9109358 26.5615575,25.308488 C26.5637472,24.9531641 26.4038953,24.9211937 26.1224391,24.9257192 C25.3685803,24.9379818 24.6144296,24.9299527 23.8604248,24.9299527 L18.0313037,24.9299527 Z" transform="translate(0 -.594)"/>
</svg>
