<?xml version="1.0" encoding="UTF-8"?>
<svg width="114px" height="47px" viewBox="0 0 114 47" version="1.1" xmlns="http://www.w3.org/2000/svg" xmlns:xlink="http://www.w3.org/1999/xlink">
    <defs></defs>
    <g id="Page-1" stroke="none" stroke-width="1" fill="none" fill-rule="evenodd">
        <g id="Artboard" transform="translate(-663.000000, -1574.000000)" fill="#FFFFFF">
            <g id="projects" transform="translate(105.000000, 1005.000000)">
                <g id="Group-3" transform="translate(0.000000, 530.000000)">
                    <path d="M638,85 L647,85 L647,40 L638,40 L638,85 Z M659.178169,65.4631703 C664.51745,63.8012478 668.361408,58.7740337 668.361408,52.9284549 C668.361408,45.6355 662.651546,39.7314084 655.358591,39.7314084 L649.019718,39.7314084 L649.019718,48.670845 L656.171267,48.670845 C658.639364,48.670845 660.559718,50.6716535 660.559718,53.1405633 C660.559718,55.6086605 658.639364,57.6102816 656.171267,57.6102816 L649.019718,57.6102816 L649.019718,64.5180281 L662.022535,84.4285914 L671.774648,84.4285914 L659.178169,65.4631703 Z M614,67 L635,67 L635,58 L614,58 L614,67 Z M558,85 L567,85 L567,40 L558,40 L558,85 Z M585.4075,60.123076 C586.53712,58.9121887 588.719155,56.7976056 588.719155,52.1677901 C588.719155,45.2421648 583.047489,39.7314084 576.122676,39.7314084 L569.377465,39.7314084 L569.377465,48.670845 L576.529014,48.670845 C578.997111,48.670845 580.917465,50.6716535 580.917465,53.1405633 C580.917465,55.6086605 578.997111,57.6102816 576.529014,57.6102816 L569.377465,57.6102816 L569.377465,66.5497182 L578.235634,66.5497182 C580.703731,66.5497182 582.705352,68.5505267 582.705352,71.0194365 C582.705352,73.4875337 580.703731,75.4891548 578.235634,75.4891548 L569.377465,75.4891548 L569.377465,84.4285914 L577.991831,84.4285914 C585.397748,84.4285914 591.238451,78.739859 591.238451,71.0194365 C591.238451,66.5228999 588.897944,62.5554154 585.4075,60.123076 L585.4075,60.123076 Z M601.803239,62.0799999 C601.803239,54.179976 608.207127,47.7760887 616.106338,47.7760887 C619.673986,47.7760887 622.928753,49.0909986 625.434234,51.2510915 L632.021786,45.6460648 C627.890953,41.3600113 622.266422,39 616.188418,39 C603.461911,39 593.107606,49.3526802 593.107606,62.0799999 C593.107606,74.8065069 603.461911,85.1599998 616.188418,85.1599998 C622.266422,85.1599998 627.890953,82.7991759 632.021786,78.5131224 L632.578469,77.9450618 L625.956784,72.4326802 C623.391166,74.8747717 619.928353,76.3830985 616.106338,76.3830985 C608.207127,76.3830985 601.803239,69.9792112 601.803239,62.0799999 Z" id="Page-1"></path>
                </g>
            </g>
        </g>
    </g>
</svg>