<svg xmlns="http://www.w3.org/2000/svg" width="91" height="64" viewBox="0 0 91 64" xmlns:xlink="http://www.w3.org/1999/xlink">
  <defs>
    <polygon id="a" points=".115 .193 61.322 .193 61.322 11.697 .115 11.697"/>
  </defs>
  <g fill="none" fill-rule="evenodd" transform="translate(0 7)">
    <path fill="#FFFFFF" fill-rule="nonzero" d="M42.9331313,35.3218935 C42.857013,35.1415384 42.8067408,35.027929 42.761013,34.9123313 C40.2931313,28.6748875 37.8243976,22.4377278 35.3633326,16.1977278 C35.2676166,15.9554556 35.188942,15.912 34.9404213,16.0236213 C33.0184331,16.8884734 31.0896284,17.7394083 29.1588355,18.5840947 C28.9239479,18.6869113 28.8696994,18.779787 28.9781965,19.0305799 C33.0488236,28.4431243 37.1126343,37.8585088 41.1719006,47.2758817 C41.2551195,47.4695858 41.3474272,47.5511006 41.5669775,47.5476923 C42.4187645,47.5340592 43.2708355,47.532355 44.1223384,47.5482604 C44.3543858,47.5525207 44.4552142,47.472994 44.5455337,47.2667929 C45.4538414,45.1902958 46.3743621,43.1189113 47.2903384,41.0458225 C50.5330366,33.7063669 53.7737467,26.3657752 57.0238296,19.0294438 C57.1320426,18.7851834 57.101368,18.6994083 56.8571077,18.5931834 C55.0385041,17.8030296 53.2241609,17.0026509 51.4154982,16.1897752 C51.1317586,16.0622485 51.0278059,16.1105326 50.9068118,16.3985326 C48.7632852,21.5081183 46.6075456,26.6125917 44.4543621,31.7179171 C43.9576047,32.8960473 43.4599953,34.0738935 42.9331313,35.3218935"/>
    <g transform="translate(13.633 .091)">
      <mask id="b" fill="white">
        <use xlink:href="#a"/>
      </mask>
      <path fill="#FFFFFF" fill-rule="nonzero" d="M61.3218745,11.6908687 C57.9493775,8.67198105 54.2141822,6.26942485 50.1282178,4.40992189 C46.0459456,2.5524071 41.7867266,1.30270296 37.3463006,0.666773965 C32.9124071,0.0316970414 28.4807858,0.0348213018 24.0474604,0.673306509 C19.6076024,1.31292781 15.3466793,2.56121183 11.2700875,4.42951953 C7.50648998,6.15439527 0.854087573,10.4894485 0.115057988,11.6934248 C0.637377515,11.6934248 1.14634793,11.6860402 1.6547503,11.6968331 C1.85953136,11.7013775 2.01858461,11.6457088 2.17991006,11.514774 C4.7375432,9.44111715 7.48973254,7.66540117 10.4427266,6.21063195 C17.2550343,2.85432426 24.4556023,1.25470296 32.0538035,1.46686864 C35.0814958,1.55150769 38.0688568,1.93777988 41.0164544,2.6279574 C47.7867266,4.21337752 53.8849988,7.17972071 59.3018982,11.5428923 C59.3805728,11.6062296 59.4484544,11.6905846 59.5620639,11.6905846 C60.1488568,11.6911527 60.7353657,11.6908687 61.3218745,11.6908687" mask="url(#b)"/>
    </g>
    <path fill="#FFFFFF" fill-rule="nonzero" d="M15.2251171 31.6199006C16.5018035 31.9118769 17.6805018 32.3600662 18.7194604 33.1317586 20.4102533 34.3885633 21.2722651 36.1043503 21.4707976 38.1686343 21.6091171 39.6072142 21.4915313 41.0281846 20.9712 42.3906461 20.1276497 44.5994982 18.4601467 45.9474745 16.3174722 46.7816521 14.8235077 47.3633326 13.2610935 47.6584331 11.6697088 47.7246106 7.8672 47.8833799 4.06128284 47.7578414.257353846 47.7961846.0690461539 47.7978887-.0215573965 47.7504568.00656094674 47.5510722.0142295858 47.4954035.00769704142 47.4377467.00769704142 47.380942.00769704142 37.2714035.0094011834 27.1621491.0000284023669 17.0526106-.000255621302 16.7319479.0630816568 16.6416284.399649704 16.6433326 3.96613491 16.660942 7.53318817 16.6279953 11.0991053 16.6759953 12.9569041 16.7007053 14.7806201 17.0148355 16.4881704 17.8086817 19.2102533 19.0742911 20.5451645 21.2484923 20.6741113 24.2131313 20.7368805 25.6593799 20.5204544 27.040587 19.7555787 28.2979597 18.7816615 29.8990012 17.3226319 30.8607053 15.5818509 31.4492023 15.4690935 31.4872615 15.3336142 31.4832852 15.2251171 31.6199006zM5.90857278 38.5986461C5.90857278 40.0403503 5.91538935 41.4823384 5.90204024 42.9240426 5.89976805 43.1825041 5.97077396 43.2461254 6.22355503 43.2427171 7.26791006 43.2282319 8.3125491 43.2367527 9.35718818 43.2364687 10.1658035 43.2364687 10.9644781 43.1458651 11.7515077 42.9601136 14.0364781 42.4207527 15.3006674 41.0239243 15.4327385 38.8474509 15.5063006 37.6326817 15.270845 36.4943148 14.4000284 35.5701018 13.4315077 34.5416521 12.1687385 34.1761136 10.8233183 34.0386461 9.29555505 33.8827171 7.76040713 34.0028592 6.22951953 33.9594035 5.94151953 33.9511669 5.90204024 34.0596639 5.90374438 34.3070485 5.91340118 35.7376757 5.90828876 37.1680189 5.90857278 38.5986461zM5.90857278 25.3273562C5.90857278 26.6554509 5.91396923 27.9835456 5.90346035 29.3116402 5.90175621 29.5436875 5.959129 29.6240662 6.2028213 29.6198059 7.04267929 29.6056047 7.8828213 29.6155456 8.72267932 29.6138414 9.50686867 29.6121373 10.2867976 29.5581727 11.0556497 29.3959953 13.3383479 28.9145752 14.8016379 27.5790958 14.695697 25.1078059 14.6261113 23.4848947 13.9109396 22.2993799 12.4061822 21.6282319 11.6512473 21.2913799 10.8522887 21.1328947 10.0334485 21.0857467 8.7525018 21.0119006 7.46899882 21.0721136 6.1872 21.0485396 5.9568568 21.0442793 5.90317633 21.1289183 5.90459645 21.3430722 5.91226509 22.6711669 5.90857278 23.9992615 5.90857278 25.3273562zM86.8246384 47.6099059C85.7453485 47.6099059 84.6660586 47.5982609 83.5873366 47.6178586 83.3095615 47.622971 83.1970882 47.5261189 83.0962597 47.2815745 82.5137272 45.8668527 81.9062006 44.4626396 81.3239521 43.0479178 81.2205674 42.7962727 81.0896326 42.7215745 80.8217982 42.7224266 77.5276917 42.7326514 74.2335852 42.7332195 70.9394787 42.7215745 70.6634077 42.7204384 70.5435497 42.810474 70.4466976 43.0564384 69.8817745 44.490474 69.2961178 45.9162727 68.7314787 47.3503083 68.650816 47.5542373 68.5514077 47.6155864 68.3378219 47.6147343 66.2363308 47.6064976 64.1348396 47.6099059 62.0336325 47.6096219 61.6399757 47.6096219 61.6399757 47.6087698 61.7961888 47.2545923 63.959597 42.3503556 66.1235734 37.446403 68.2858456 32.5415982 70.5486621 27.4084384 72.8123308 22.2752787 75.0652065 17.1375746 75.2004018 16.8288408 75.3449698 16.6774562 75.7071 16.7101189 76.1578456 16.7507343 76.6162597 16.7396574 77.0687095 16.7121071 77.3209225 16.6967698 77.3942006 16.8240124 77.4751473 17.0143083 78.7475734 20.0073497 80.0253958 22.9981189 81.3009461 25.9897402 84.3189817 33.067894 87.3361651 40.1463319 90.3536326 47.2247698 90.5175142 47.6096219 90.5177982 47.6099059 90.0960231 47.6099059L86.8246384 47.6099059zM75.8823426 27.0837994C75.8238337 27.2192787 75.7999757 27.2695509 75.780094 27.3212432 74.5400467 30.558829 73.3036917 33.7978349 72.0551236 37.0320124 71.940094 37.3296692 72.0767095 37.3086514 72.2851828 37.3083674 74.8067449 37.3043911 77.3280231 37.3060953 79.8495852 37.3055272 80.2369935 37.3055272 80.2386976 37.3038231 80.0816326 36.9345923 79.1358337 34.7140953 78.1894669 32.4938822 77.2431 30.2736692 76.8005911 29.2349947 76.3569461 28.1966041 75.8823426 27.0837994zM42.9331313 35.3218935C43.4599953 34.0738935 43.9576047 32.8960473 44.4543621 31.7179171 46.6075456 26.6125917 48.7632852 21.5081183 50.9068118 16.3985326 51.0278059 16.1105326 51.1317586 16.0622485 51.4154982 16.1897752 53.2241609 17.0026509 55.0385041 17.8030296 56.8571077 18.5931834 57.101368 18.6994083 57.1320426 18.7851834 57.0238296 19.0294438 53.7737467 26.3657752 50.5330366 33.7063669 47.2903384 41.0458225 46.3743621 43.1189113 45.4538414 45.1902958 44.5455337 47.2667929 44.4552142 47.472994 44.3543858 47.5525207 44.1223384 47.5482604 43.2708355 47.532355 42.4187645 47.5340592 41.5669775 47.5476923 41.3474272 47.5511006 41.2551195 47.4695858 41.1719006 47.2758817 37.1126343 37.8585088 33.0488236 28.4431243 28.9781965 19.0305799 28.8696994 18.779787 28.9239479 18.6869113 29.1588355 18.5840947 31.0896284 17.7394083 33.0184331 16.8884734 34.9404213 16.0236213 35.188942 15.912 35.2676166 15.9554556 35.3633326 16.1977278 37.8243976 22.4377278 40.2931313 28.6748875 42.761013 34.9123313 42.8067408 35.027929 42.857013 35.1415384 42.9331313 35.3218935"/>
    <path fill="#FFFFFF" fill-opacity=".6" fill-rule="nonzero" d="M74.9553745,11.7823687 C74.3688657,11.7823687 73.7823568,11.7826527 73.1955639,11.7820847 C73.0819544,11.7820847 73.0140727,11.6977296 72.9353982,11.6343923 C67.5184988,7.27122071 61.4202266,4.30487752 54.6499544,2.7194574 C51.7023568,2.02927988 48.7149958,1.64300769 45.6873035,1.55836864 C38.0891023,1.34620296 30.8885343,2.94582426 24.0762266,6.30213195 C21.1232325,7.75690118 18.3710432,9.53261715 15.8134101,11.606274 C15.6520846,11.7372089 15.4930314,11.7928775 15.2882503,11.7883331 C14.7798479,11.7775402 14.2708775,11.7849248 13.748558,11.7849248 C14.4875876,10.5809486 21.13999,6.24589527 24.9035875,4.52101953 C28.9801793,2.65271183 33.2411023,1.40442781 37.6809604,0.764806509 C42.1142858,0.126321302 46.5459071,0.123197041 50.9798006,0.758273965 C55.4202266,1.39420296 59.6794456,2.6439071 63.7617178,4.5014219 C67.8476822,6.36092486 71.5828775,8.76348105 74.9553745,11.7823687"/>
  </g>
</svg>
