<?xml version="1.0" encoding="UTF-8"?>
<svg width="43px" height="64px" viewBox="0 0 43 64" version="1.1" xmlns="http://www.w3.org/2000/svg" xmlns:xlink="http://www.w3.org/1999/xlink">
    <defs></defs>
    <g id="Page-1" stroke="none" stroke-width="1" fill="none" fill-rule="evenodd">
        <g id="Group-3" transform="translate(-279.000000, -30.000000)" fill="#FFFFFF">
            <path d="M300.392368,30 L303.349182,35.1206364 C303.956416,36.1740379 303.956416,37.4831479 303.349182,38.5347859 L285.800524,68.9311798 L294.081952,83.2714307 C295.380481,85.5199021 297.789432,86.9165996 300.388253,86.9165996 C302.987075,86.9165996 305.407194,85.5199021 306.705135,83.2726064 L314.986564,68.9311798 L312.749262,65.0579307 L303.350945,81.338627 C302.743123,82.3920285 301.597431,83.0439383 300.391193,83.0439383 C299.186129,83.0439383 298.04514,82.3920285 297.437318,81.338627 L290.276304,68.9300042 L306.571109,40.7003725 L309.527334,45.8210089 C310.135156,46.875586 310.135156,48.1841082 309.527334,49.236334 L298.156829,68.9311798 L300.392956,72.8061925 L312.749262,51.4019206 L320.854927,65.439436 C322.097024,67.5938537 322.097024,70.2702695 320.854927,72.4223358 L312.618174,86.6873437 C311.356091,88.8735045 307.456977,93.7466621 300.381199,93.7466621 C293.305422,93.7466621 289.430409,88.8735045 288.168914,86.6873437 L279.931573,72.4246872 C278.689476,70.268506 278.689476,67.5932659 279.931573,65.4411996 L300.392368,30" id="Fill-15"></path>
        </g>
    </g>
</svg>