<?xml version="1.0" encoding="UTF-8"?>
<svg width="43px" height="64px" viewBox="0 0 43 64" version="1.1" xmlns="http://www.w3.org/2000/svg" xmlns:xlink="http://www.w3.org/1999/xlink">
    <!-- Generator: Sketch 42 (36781) - http://www.bohemiancoding.com/sketch -->
    <title>Fill-15</title>
    <desc>Created with Sketch.</desc>
    <defs></defs>
    <g id="Page-1" stroke="none" stroke-width="1" fill="none" fill-rule="evenodd">
        <g id="Group-3" fill-rule="nonzero" fill="#ED5153">
            <g>
                <path d="M21.392368,0 L24.349182,5.1206364 C24.956416,6.1740379 24.956416,7.4831479 24.349182,8.5347859 L6.800524,38.9311798 L15.081952,53.2714307 C16.380481,55.5199021 18.789432,56.9165996 21.388253,56.9165996 C23.987075,56.9165996 26.407194,55.5199021 27.705135,53.2726064 L35.986564,38.9311798 L33.749262,35.0579307 L24.350945,51.338627 C23.743123,52.3920285 22.597431,53.0439383 21.391193,53.0439383 C20.186129,53.0439383 19.04514,52.3920285 18.437318,51.338627 L11.276304,38.9300042 L27.571109,10.7003725 L30.527334,15.8210089 C31.135156,16.875586 31.135156,18.1841082 30.527334,19.236334 L19.156829,38.9311798 L21.392956,42.8061925 L33.749262,21.4019206 L41.854927,35.439436 C43.097024,37.5938537 43.097024,40.2702695 41.854927,42.4223358 L33.618174,56.6873437 C32.356091,58.8735045 28.456977,63.7466621 21.381199,63.7466621 C14.305422,63.7466621 10.430409,58.8735045 9.168914,56.6873437 L0.931573,42.4246872 C-0.310524,40.268506 -0.310524,37.5932659 0.931573,35.4411996 L21.392368,0" id="Fill-15"></path>
            </g>
        </g>
    </g>
</svg>