<?xml version="1.0" encoding="UTF-8"?>
<svg width="32px" height="32px" viewBox="0 0 32 32" version="1.1" xmlns="http://www.w3.org/2000/svg" xmlns:xlink="http://www.w3.org/1999/xlink">
    <!-- Generator: Sketch 42 (36781) - http://www.bohemiancoding.com/sketch -->
    <title>Rectangle 5 + Rectangle 5 + Rectangle 5 + Group 4 + Rectangle 5 + Group 4 Mask</title>
    <desc>Created with Sketch.</desc>
    <defs>
        <rect id="path-1" x="0" y="0" width="32" height="32"></rect>
    </defs>
    <g id="Page-1" stroke="none" stroke-width="1" fill="none" fill-rule="evenodd">
        <g id="Rectangle-5-+-Rectangle-5-+-Rectangle-5-+-Group-4-+-Rectangle-5-+-Group-4-Mask">
            <mask id="mask-2" fill="white">
                <use xlink:href="#path-1"></use>
            </mask>
            <g id="Mask"></g>
            <rect id="Rectangle-5" fill="#2E69FF" mask="url(#mask-2)" x="0" y="0" width="3" height="52"></rect>
            <rect id="Rectangle-5" fill="#2E69FF" mask="url(#mask-2)" x="5" y="0" width="3" height="32"></rect>
            <path d="M20.6213203,25.5 L20.6213203,3.5 L17.6213203,3.5 L17.6213203,27 L17.6213203,28.5 L42.6213203,28.5 L42.6213203,25.5 L20.6213203,25.5 Z" id="Combined-Shape" fill="#2E69FF" mask="url(#mask-2)" transform="translate(30.121320, 16.000000) rotate(-315.000000) translate(-30.121320, -16.000000) "></path>
            <path d="M28,24 L28,5 L25,5 L25,25.5 L25,27 L47,27 L47,24 L28,24 Z" id="Combined-Shape" fill="#2E69FF" mask="url(#mask-2)" transform="translate(36.000000, 16.000000) rotate(-315.000000) translate(-36.000000, -16.000000) "></path>
            <rect id="Rectangle-5" fill="#2E69FF" mask="url(#mask-2)" x="10" y="0" width="3" height="11"></rect>
            <g id="Group-4" mask="url(#mask-2)" fill="#2E69FF">
                <g transform="translate(18.663793, 5.020815) rotate(-315.000000) translate(-18.663793, -5.020815) translate(16.663793, -8.979185)" id="Rectangle-5">
                    <polygon points="0.166666667 0.247546896 3.16666667 0.247546896 2.93300534 27.179693 0.101695509 24.3541486"></polygon>
                </g>
            </g>
            <rect id="Rectangle-5" fill="#2E69FF" mask="url(#mask-2)" transform="translate(11.500000, 26.000000) scale(1, -1) translate(-11.500000, -26.000000) " x="10" y="20" width="3" height="12"></rect>
            <g id="Group-4" mask="url(#mask-2)" fill="#2E69FF">
                <g transform="translate(17.956686, 28.084945) scale(1, -1) rotate(-315.000000) translate(-17.956686, -28.084945) translate(15.956686, 14.084945)" id="Rectangle-5">
                    <polygon points="1.29779943 0.378679656 4.29779943 0.378679656 4.13199197 27.3786797 1.38358587 24.636039"></polygon>
                </g>
            </g>
        </g>
    </g>
</svg>