<svg xmlns="http://www.w3.org/2000/svg" width="64" height="64" viewBox="0 0 64 64">
  <g fill="none" fill-rule="evenodd">
    <path fill="#FFFFFF" d="M48.75,1.0909148e-15 C58,1.0909148e-15 64,6 64,15.25 L64,48.75 C64,58 58,64 48.75,64 L15.25,64 C6,64 0,58 0,48.75 L0,15.25 C0,6 6,1.0909148e-15 15.25,1.0909148e-15 L48.75,1.0909148e-15 Z"/>
    <g transform="translate(7 7)">
      <path fill="#59159F" d="M25,51 C24.3267868,51 23.6597887,50.972858 23,50.9195305 L23,35 L48.121352,35 C48.0814856,35.1008856 48.0410348,35.2014354 48,35.3016457 L48,35 L25,35 L25,51 Z M10,45.8680042 C6.43174842,43.1052629 3.60401101,39.3665914 1.87865171,35 L10,35 L10,45.8680042 Z M0.653117784,31 C0.225905172,29.0796804 0,27.071795 0,25 C0,16.9535201 3.92776649,9.66730853 10,5.0642691 L10,31 L0.653117784,31 Z M23,0.080353612 C23.6597887,0.0271419577 24.3267868,0 25,0 C38.8071187,0 50,11.4167389 50,25 C50,27.071795 49.7740948,29.0796804 49.3468822,31 L23,31 L23,0.080353612 Z"/>
      <path fill="#EFBD24" d="M2.21903973,28 C2.07470232,27.0166956 2,26.0149988 2,25 C2,17.9058378 5.10153229,11.6709265 10,7.4888528 L10,29 L10,28 L2.21903973,28 Z M47.3860748,30 C47.7875629,28.3877965 48,26.7130101 48,25 C48,12.0735931 37.7025492,2 25,2 C24.6649451,2 24.3315634,2.00700866 24,2.02089345 L24,15 L25,30 L47.3860748,30 Z M4.55473796,35 C5.91921159,37.5293179 7.77752074,39.7875576 10,41.6444555 L10,35 L4.55473796,35 Z M24,48.5 L24,50 C24.1696237,49.998388 24.3396532,50 25,50 C35.0653967,50 44.1230358,43.8160676 48,35 C41.1679133,35.1410484 24,35 24,35 L24,48.5 Z"/>
      <rect width="24.75" height="2.313" x="23.688" y="28.125" fill="#59159F"/>
      <polygon fill="#59159F" points="8 30 10 30 10 46 8 44"/>
      <polygon fill="#59159F" points="23 1 25 1 25 50 23 50"/>
      <rect width="2" height="1" x="23" y="50" fill="#FFFFFF"/>
    </g>
  </g>
</svg>
