<?xml version="1.0" encoding="UTF-8"?>
<svg width="244px" height="64px" viewBox="0 0 244 64" version="1.1" xmlns="http://www.w3.org/2000/svg" xmlns:xlink="http://www.w3.org/1999/xlink">
    <!-- Generator: Sketch 42 (36781) - http://www.bohemiancoding.com/sketch -->
    <title>Artboard 2</title>
    <desc>Created with Sketch.</desc>
    <defs></defs>
    <g id="Page-1" stroke="none" stroke-width="1" fill="none" fill-rule="evenodd">
        <g id="Artboard-2" fill="#FFFFFF">
            <g id="Group-2" transform="translate(4.000000, 8.000000)">
                <g id="Group-47" transform="translate(174.000000, 0.000000)">
                    <path d="M59.47224,16.13532 C62.87664,21.09492 61.64544,26.56092 58.42824,31.78092 C61.25184,29.85252 63.50784,27.84012 64.68144,25.84452 C66.07224,23.22612 63.89424,19.63332 59.47224,16.13532" id="Fill-31" fill-opacity="0.154098732"></path>
                    <path d="M10.59588,26.77644 C7.60428,22.18884 4.68348,17.61804 4.40868,13.34964 C4.00308,13.82004 3.62508,14.29164 3.29388,14.76324 C0.13308,19.26924 0.01788,23.61684 2.68788,28.12764 C8.02548,36.29844 15.35388,43.54764 24.19428,44.29164 C24.03108,44.15004 23.86548,44.00484 23.70348,43.85244 C20.49228,40.59564 15.45948,33.66324 10.59588,26.77644" id="Fill-33" fill-opacity="0.154098732"></path>
                    <path d="M20.22696,4.69716 C27.99576,2.86956 41.21376,6.09756 50.82456,10.84836 C54.20136,12.48036 57.14496,14.29476 59.47176,16.13556 C59.22936,15.78276 58.96656,15.43236 58.67616,15.08556 C55.33536,11.27796 45.72336,4.15596 34.49976,1.66116 C23.49456,-1.17084 10.87656,0.62676 6.54696,6.89436 C4.85136,8.93676 4.26456,11.10516 4.40856,13.34916 C7.73496,9.47676 13.34616,5.77956 20.22696,4.69716" id="Fill-35" fill-opacity="0.154098732"></path>
                    <path d="M26.59908,44.3394 C25.78548,44.379 24.98508,44.3586 24.19428,44.2914 C31.11108,50.3586 41.91708,49.2066 50.13948,41.661 C53.25948,38.6286 56.28588,35.2602 58.42908,31.7814 C55.10508,34.0542 50.99988,36.2154 46.94508,38.1102 C39.31428,41.5926 31.87548,44.1714 26.59908,44.3394" id="Fill-37" fill-opacity="0.154098732"></path>
                    <path d="M59.47224,16.13532 C57.14424,14.29452 54.20064,12.48012 50.82504,10.84812 C41.21304,6.09732 27.99624,2.86932 20.22744,4.69692 C13.34664,5.77932 7.73424,9.47652 4.40904,13.35012 C4.68384,17.61852 7.60464,22.18812 10.59624,26.77692 C15.45984,33.66372 20.49264,40.59612 23.70384,43.85292 C23.86584,44.00532 24.03144,44.15052 24.19344,44.29212 C24.98424,44.35932 25.78584,44.37972 26.59944,44.33892 C31.87464,44.17092 39.31344,41.59212 46.94544,38.11092 C51.00024,36.21492 55.10424,34.05372 58.42824,31.78092 C61.64544,26.56092 62.87664,21.09492 59.47224,16.13532" id="Fill-39" fill-opacity="0.5"></path>
                    <path d="M19.46484,27.28068 C20.44644,27.28068 21.18804,27.22788 21.69804,27.12348 L21.69804,23.60388 C21.52164,23.55108 21.26844,23.49828 20.93724,23.44668 C20.60364,23.39508 20.23404,23.36628 19.83444,23.36628 C19.48164,23.36628 19.12644,23.39508 18.76884,23.44668 C18.40884,23.49828 18.08724,23.59548 17.79684,23.73588 C17.50764,23.87628 17.27604,24.07308 17.10084,24.32628 C16.92324,24.57948 16.84044,24.89988 16.84044,25.28628 C16.84044,26.03988 17.07564,26.55948 17.54724,26.84868 C18.01884,27.13548 18.65964,27.28068 19.46484,27.28068 M19.20324,15.43548 C20.25204,15.43548 21.13764,15.56868 21.85644,15.83028 C22.57284,16.09188 23.14764,16.45908 23.57604,16.93188 C24.00324,17.40588 24.31164,17.97948 24.49644,18.65388 C24.68004,19.32828 24.77244,20.06748 24.77244,20.87148 L24.77244,29.19828 C24.28164,29.30388 23.54004,29.43108 22.55244,29.58108 C21.56364,29.72988 20.44644,29.80188 19.20324,29.80188 C18.37884,29.80188 17.62884,29.72388 16.94244,29.56668 C16.25964,29.40948 15.67644,29.15508 15.19764,28.80468 C14.71524,28.45428 14.33724,27.99948 14.06724,27.44028 C13.79484,26.87868 13.65924,26.18868 13.65924,25.36308 C13.65924,24.57468 13.81404,23.90988 14.11884,23.36628 C14.42724,22.82508 14.84244,22.38228 15.36924,22.04268 C15.89484,21.70068 16.49964,21.45468 17.19324,21.30348 C17.88444,21.15708 18.60684,21.08268 19.36044,21.08268 C19.70844,21.08268 20.07684,21.10548 20.46204,21.14868 C20.84724,21.18948 21.25884,21.26748 21.69804,21.37308 L21.69804,20.84508 C21.69804,20.47788 21.65244,20.12868 21.56604,19.79508 C21.47844,19.46148 21.32604,19.16988 21.10764,18.91428 C20.88804,18.66348 20.59764,18.46428 20.24004,18.32388 C19.87884,18.18228 19.43004,18.11508 18.88764,18.11508 C18.15084,18.11508 17.47884,18.16788 16.86444,18.27468 C16.25244,18.37788 15.75324,18.50028 15.36924,18.63948 L14.97324,16.06668 C15.37644,15.92508 15.96204,15.78468 16.73004,15.64308 C17.50404,15.50628 18.32724,15.43548 19.20324,15.43548" id="Fill-41"></path>
                    <path d="M36.45804,22.71036 C36.45804,21.29196 36.14004,20.19156 35.49924,19.40196 C34.86084,18.61356 33.83244,18.21756 32.41644,18.21756 C32.11524,18.21756 31.80564,18.23196 31.48284,18.25836 C31.15884,18.28596 30.83844,18.34236 30.52404,18.42876 L30.52404,26.28516 C30.80244,26.47596 31.17444,26.65596 31.63884,26.82276 C32.10324,26.98956 32.59644,27.07116 33.12444,27.07116 C34.27884,27.07116 35.12244,26.67756 35.65764,25.88916 C36.19284,25.10076 36.45804,24.04116 36.45804,22.71036 M39.71604,22.65756 C39.71604,23.70876 39.57924,24.67236 39.30924,25.54956 C39.03804,26.42316 38.64804,27.17676 38.13804,27.80436 C37.63164,28.43796 36.99924,28.92756 36.23484,29.27796 C35.47404,29.62956 34.61124,29.80236 33.64764,29.80236 C32.99964,29.80236 32.40444,29.72316 31.86324,29.56716 C31.31844,29.40996 30.87204,29.23236 30.52404,29.04036 L30.52404,34.37316 L27.34524,34.37316 L27.34524,16.22436 C27.99324,16.04796 28.78644,15.88236 29.73564,15.72516 C30.67884,15.56796 31.67844,15.48876 32.72964,15.48876 C33.81564,15.48876 34.78644,15.65436 35.64444,15.98796 C36.50364,16.32156 37.23444,16.79916 37.83684,17.41956 C38.44284,18.03996 38.90604,18.79476 39.23124,19.67676 C39.55404,20.56356 39.71604,21.55476 39.71604,22.65756" id="Fill-43"></path>
                    <path d="M50.80212,22.71036 C50.80212,21.29196 50.48172,20.19156 49.84212,19.40196 C49.20252,18.61356 48.17292,18.21756 46.75212,18.21756 C46.45812,18.21756 46.14612,18.23196 45.82332,18.25836 C45.49932,18.28596 45.17772,18.34236 44.86452,18.42876 L44.86452,26.28516 C45.14532,26.47596 45.51492,26.65596 45.98172,26.82276 C46.44492,26.98956 46.93812,27.07116 47.46612,27.07116 C48.61932,27.07116 49.46532,26.67756 49.99932,25.88916 C50.53452,25.10076 50.80212,24.04116 50.80212,22.71036 M54.05652,22.65756 C54.05652,23.70876 53.92212,24.67236 53.64972,25.54956 C53.37732,26.42316 52.98972,27.17676 52.47972,27.80436 C51.97092,28.43796 51.34092,28.92756 50.57652,29.27796 C49.81812,29.62956 48.95292,29.80236 47.98932,29.80236 C47.34012,29.80236 46.74732,29.72316 46.20372,29.56716 C45.65892,29.40996 45.21372,29.23236 44.86452,29.04036 L44.86452,34.37316 L41.68692,34.37316 L41.68692,16.22436 C42.33252,16.04796 43.13052,15.88236 44.07732,15.72516 C45.02052,15.56796 46.01892,15.48876 47.07012,15.48876 C48.15612,15.48876 49.12812,15.65436 49.98612,15.98796 C50.84292,16.32156 51.57612,16.79916 52.18092,17.41956 C52.78212,18.03996 53.24772,18.79476 53.57052,19.67676 C53.89572,20.56356 54.05652,21.55476 54.05652,22.65756" id="Fill-45"></path>
                </g>
                <g id="Group" transform="translate(0.000000, 8.400000)">
                    <path d="M11.3025065,9.17124408 L15.661554,9.17124408 L15.661554,27.5546144 C14.8195126,27.7737012 13.7287099,27.9980293 12.3849825,28.2265504 C11.0391734,28.4561198 9.56429987,28.5714286 7.95723936,28.5714286 C6.44385466,28.5714286 5.17819043,28.3533901 4.15816498,27.9183614 C3.13813953,27.4812361 2.32316001,26.8784855 1.71010389,26.1048681 C1.09808862,25.332299 0.659894016,24.407732 0.396560915,23.3322152 C0.132186972,22.2546019 0,21.0805485 0,19.7964275 L0,9.17124408 L4.35592501,9.17124408 L4.35592501,19.1077194 C4.35592501,21.1371546 4.64944254,22.5858527 5.23751844,23.4580066 C5.82767602,24.3280641 6.85186484,24.7630928 8.31632995,24.7630928 C8.844037,24.7630928 9.40192847,24.7389828 9.98896353,24.6907627 C10.5780803,24.6446392 11.0173157,24.5817435 11.3025065,24.5094134 L11.3025065,9.17124408 Z M19.740615,0.723300767 L24.09654,0 L24.09654,21.7178917 C24.09654,22.2504088 24.1392146,22.6959202 24.2235228,23.0596671 C24.3057493,23.4213175 24.4556306,23.7295065 24.6721258,23.9852824 C24.888621,24.2389618 25.1821385,24.4307937 25.5547601,24.5660195 C25.9252999,24.6981005 26.4009649,24.799782 26.9765507,24.8710638 L26.3645354,28.4980502 C25.0676459,28.4739402 23.9934966,28.3261353 23.1420876,28.0640698 C22.288597,27.796763 21.6130903,27.4162439 21.1093226,26.9214642 C20.6034733,26.4266846 20.248546,25.8071617 20.0476635,25.0712818 C19.8426176,24.3333054 19.740615,23.4946958 19.740615,22.55126 L19.740615,0.723300767 Z M30.2895517,4.1689379 L34.6454767,3.44458887 L34.6454767,9.17124408 L41.342256,9.17124408 L41.342256,12.8349197 L34.6454767,12.8349197 L34.6454767,20.558514 C34.6454767,22.0805904 34.8848704,23.1686863 35.3646987,23.8207053 C35.844527,24.4748207 36.6605474,24.799782 37.8138007,24.799782 C38.6048408,24.799782 39.3063685,24.715921 39.9194246,24.5450543 C40.5303991,24.3783806 41.0164724,24.2190448 41.3776447,24.0754329 L42.0968667,27.5546144 C41.593099,27.7737012 40.9321642,27.9980293 40.1171847,28.2265504 C39.3011643,28.4561198 38.3415077,28.5714286 37.2382149,28.5714286 C35.8924058,28.5714286 34.7693369,28.3879827 33.87109,28.0252841 C32.9697206,27.664682 32.2567436,27.1384544 31.7290366,26.4486981 C31.2002887,25.7599899 30.828708,24.9276699 30.6132536,23.9485932 C30.3957176,22.9695165 30.2895517,21.851021 30.2895517,20.5931066 L30.2895517,4.1689379 Z M45.8397356,1.63214391 C46.3695243,1.14679861 47.005479,0.905698352 47.7496812,0.905698352 C48.4699441,0.905698352 49.0934086,1.14679861 49.6231974,1.63214391 C50.1488227,2.11644094 50.4131967,2.77789425 50.4131967,3.62593819 C50.4131967,4.44672733 50.1488227,5.09979454 49.6231974,5.58304331 C49.0934086,6.06524383 48.4699441,6.30948887 47.7496812,6.30948887 C47.005479,6.30948887 46.3695243,6.06524383 45.8397356,5.58304331 C45.3130694,5.09979454 45.0486955,4.44672733 45.0486955,3.62593819 C45.0486955,2.77789425 45.3130694,2.11644094 45.8397356,1.63214391 Z M45.5888926,28.1353516 L45.5888926,9.17124408 L49.9448176,9.17124408 L49.9448176,28.1353516 L45.5888926,28.1353516 Z M71.2747988,8.95530211 C71.8399762,8.83475198 72.4093169,8.77500105 72.9859436,8.77500105 C74.4493678,8.77500105 75.6557041,8.98465344 76.6049522,9.40919955 C77.5521187,9.83060086 78.2952801,10.4228689 78.8354773,11.1860036 C79.3756744,11.9480901 79.7472551,12.864271 79.9523011,13.9397878 C80.1563061,15.0163529 80.2583087,16.1945994 80.2583087,17.4755755 L80.2583087,28.1353516 L75.9013428,28.1353516 L75.9013428,18.1642836 C75.9013428,16.1830685 75.6609083,14.7511426 75.1821208,13.8695543 C74.7012517,12.9848212 73.7769837,12.5445511 72.4093169,12.5445511 C71.7140343,12.5445511 71.0530994,12.6588117 70.4296349,12.8883811 C69.8051295,13.120047 69.3377913,13.3433268 69.0244978,13.5613653 C69.2180944,14.1641159 69.3492406,14.804604 69.4220995,15.4817812 C69.4939177,16.1579102 69.5303471,16.8833075 69.5303471,17.6569248 L69.5303471,28.1353516 L65.1733813,28.1353516 L65.1733813,18.1642836 C65.1733813,16.1830685 64.9277425,14.7511426 64.4354241,13.8695543 C63.9431057,12.9848212 63.0250828,12.5445511 61.6823962,12.5445511 C61.2004862,12.5445511 60.67382,12.5791438 60.0982342,12.6546186 C59.5205668,12.7269487 59.0896581,12.7866997 58.8013447,12.8349197 L58.8013447,28.1353516 L54.4454197,28.1353516 L54.4454197,9.78867038 C55.2843386,9.54861839 56.3813864,9.31904902 57.7386448,9.098914 C59.0948623,8.88192377 60.529143,8.77500105 62.0414868,8.77500105 C63.3373355,8.77500105 64.4000355,8.94377123 65.2264642,9.28026332 C66.0549747,9.61885194 66.7450532,10.0664598 67.2977404,10.6220387 C67.5600327,10.4291585 67.8983064,10.2236991 68.3063166,10.0067089 C68.7153676,9.78867038 69.168134,9.58950061 69.6739834,9.40919955 C70.177751,9.22785022 70.7117031,9.07794876 71.2747988,8.95530211 Z M88.4653502,8.99199128 C89.5218051,8.79701455 90.6490373,8.70162271 91.8501694,8.70162271 C93.2906951,8.70162271 94.5011947,8.88192377 95.4858315,9.24462242 C96.4704683,9.60836932 97.2563043,10.1167764 97.8422985,10.7677471 C98.4303744,11.419766 98.8529563,12.2122521 99.105881,13.1410122 C99.3577648,14.0739654 99.4816251,15.0939243 99.4816251,16.2071785 L99.4816251,27.6992746 C98.8082001,27.8460313 97.7975422,28.0221393 96.4402839,28.2265504 C95.0840664,28.4309615 93.5540282,28.5347394 91.8501694,28.5347394 C90.7208555,28.5347394 89.6893807,28.4257202 88.7547044,28.2087299 C87.8179463,27.9885949 87.0196203,27.6395237 86.3597262,27.1552266 C85.6998322,26.6740744 85.1835744,26.0451172 84.8109529,25.2704516 C84.4393722,24.4978825 84.2530614,23.5429158 84.2530614,22.4065999 C84.2530614,21.3185039 84.4633116,20.4002264 84.882771,19.6517674 C85.3043122,18.9022601 85.8736529,18.2921716 86.5949566,17.8183572 C87.3131378,17.3476875 88.1478933,17.0101472 89.0950598,16.8057361 C90.0422263,16.5992285 91.0351898,16.4954505 92.0656237,16.4954505 C92.545452,16.4954505 93.0502605,16.5268984 93.5769267,16.5866493 C94.1056746,16.6484968 94.6698111,16.7501782 95.271418,16.8948384 L95.271418,16.1704893 C95.271418,15.6631305 95.2100083,15.1798818 95.0913523,14.720743 C94.9695737,14.2626525 94.7593236,13.8559269 94.4606018,13.5047591 C94.1597984,13.1556879 93.7632375,12.884188 93.2719599,12.6892113 C92.7806824,12.4963311 92.162422,12.3988427 91.4182198,12.3988427 C90.4096436,12.3988427 89.4843348,12.4722211 88.6464568,12.6179295 C87.8054562,12.7636379 87.1216228,12.9303115 86.5949566,13.1263365 L86.0537186,9.56958363 C86.6064059,9.37879995 87.4099361,9.18382322 88.4653502,8.99199128 Z M89.5811332,24.4549038 C88.9326884,24.0565642 88.6100273,23.3364082 88.6100273,22.2986289 C88.6100273,21.7661118 88.7297242,21.3247935 88.9701587,20.9736257 C89.2105933,20.6235062 89.5270094,20.3520064 89.9225294,20.1591262 C90.3190903,19.966246 90.76353,19.8331167 91.2548076,19.7597384 C91.747126,19.68636 92.2331993,19.6517674 92.7140685,19.6517674 C93.2657149,19.6517674 93.7705234,19.68636 94.2253715,19.7597384 C94.6812604,19.8331167 95.0289017,19.9043985 95.271418,19.9777768 L95.271418,24.8354229 C94.5740537,24.9811313 93.5540282,25.0534614 92.20926,25.0534614 C91.1059671,25.0534614 90.2306187,24.8542916 89.5811332,24.4549038 Z M103.550278,4.1689379 L107.907243,3.44458887 L107.907243,9.17124408 L114.601941,9.17124408 L114.601941,12.8349197 L107.907243,12.8349197 L107.907243,20.558514 C107.907243,22.0805904 108.145596,23.1686863 108.627506,23.8207053 C109.107335,24.4748207 109.922314,24.799782 111.074527,24.799782 C111.865567,24.799782 112.568135,24.715921 113.180151,24.5450543 C113.792166,24.3783806 114.27928,24.2190448 114.639411,24.0754329 L115.358633,27.5546144 C114.855907,27.7737012 114.193931,27.9980293 113.379992,28.2265504 C112.56189,28.4561198 111.602234,28.5714286 110.498941,28.5714286 C109.155213,28.5714286 108.032145,28.3879827 107.131816,28.0252841 C106.231487,27.664682 105.51747,27.1384544 104.991844,26.4486981 C104.461015,25.7599899 104.089434,24.9276699 103.87398,23.9485932 C103.658525,22.9695165 103.550278,21.851021 103.550278,20.5931066 L103.550278,4.1689379 Z M129.903364,9.17124408 L134.258248,9.17124408 L134.258248,27.5546144 C133.418288,27.7737012 132.325404,27.9980293 130.982717,28.2265504 C129.637949,28.4561198 128.162035,28.5714286 126.556015,28.5714286 C125.044712,28.5714286 123.775925,28.3533901 122.757981,27.9183614 C121.735874,27.4812361 120.921936,26.8784855 120.308879,26.1048681 C119.696864,25.332299 119.25867,24.407732 118.994296,23.3322152 C118.730963,22.2546019 118.599816,21.0805485 118.599816,19.7964275 L118.599816,9.17124408 L122.954701,9.17124408 L122.954701,19.1077194 C122.954701,21.1371546 123.249259,22.5858527 123.836294,23.4580066 C124.423329,24.3280641 125.45064,24.7630928 126.914065,24.7630928 C127.441772,24.7630928 128.001745,24.7389828 128.589821,24.6907627 C129.176856,24.6446392 129.61401,24.5817435 129.903364,24.5094134 L129.903364,9.17124408 Z M155.415449,8.95530211 C155.980627,8.83475198 156.548927,8.77500105 157.126594,8.77500105 C158.590018,8.77500105 159.795314,8.98465344 160.745603,9.40919955 C161.691728,9.83060086 162.436971,10.4228689 162.975087,11.1860036 C163.515284,11.9480901 163.888946,12.864271 164.091911,13.9397878 C164.295916,15.0163529 164.4,16.1945994 164.4,17.4755755 L164.4,28.1353516 L160.041993,28.1353516 L160.041993,18.1642836 C160.041993,16.1830685 159.80364,14.7511426 159.323812,13.8695543 C158.841902,12.9848212 157.916593,12.5445511 156.548927,12.5445511 C155.853644,12.5445511 155.194791,12.6588117 154.571326,12.8883811 C153.94578,13.120047 153.479483,13.3433268 153.166189,13.5613653 C153.357704,14.1641159 153.489891,14.804604 153.561709,15.4817812 C153.632486,16.1579102 153.669957,16.8833075 153.669957,17.6569248 L153.669957,28.1353516 L149.312991,28.1353516 L149.312991,18.1642836 C149.312991,16.1830685 149.068393,14.7511426 148.577115,13.8695543 C148.083756,12.9848212 147.166774,12.5445511 145.819924,12.5445511 C145.342178,12.5445511 144.81447,12.5791438 144.236803,12.6546186 C143.662258,12.7269487 143.229268,12.7866997 142.941995,12.8349197 L142.941995,28.1353516 L138.585029,28.1353516 L138.585029,9.78867038 C139.424989,9.54861839 140.522037,9.31904902 141.880336,9.098914 C143.236554,8.88192377 144.669793,8.77500105 146.182137,8.77500105 C147.477986,8.77500105 148.540686,8.94377123 149.368156,9.28026332 C150.196666,9.61885194 150.885704,10.0664598 151.43735,10.6220387 C151.701724,10.4291585 152.036875,10.2236991 152.445926,10.0067089 C152.853936,9.78867038 153.309825,9.58950061 153.813593,9.40919955 C154.319442,9.22785022 154.852354,9.07794876 155.415449,8.95530211 Z" id="Fill-1"></path>
                </g>
            </g>
        </g>
    </g>
</svg>